<?xml version="1.0" encoding="UTF-8" standalone="no"?>
<!DOCTYPE svg PUBLIC "-//W3C//DTD SVG 1.1//EN"
 "http://www.w3.org/Graphics/SVG/1.1/DTD/svg11.dtd">
<!-- Generated by graphviz version 2.40.1 (20161225.0304)
 -->
<!-- Title: %3 Pages: 1 -->
<svg width="486pt" height="435pt"
 viewBox="0.00 0.00 486.01 435.01" xmlns="http://www.w3.org/2000/svg" xmlns:xlink="http://www.w3.org/1999/xlink">
<g id="graph0" class="graph" transform="scale(1 1) rotate(0) translate(4 431.0135)">
<title>%3</title>
<polygon fill="#ffffff" stroke="transparent" points="-4,4 -4,-431.0135 482.0073,-431.0135 482.0073,4 -4,4"/>
<!-- 8 -->
<g id="node1" class="node">
<title>8</title>
<ellipse fill="none" stroke="#000000" cx="224.44" cy="-286.7234" rx="18" ry="18"/>
<text text-anchor="middle" x="224.44" y="-282.5234" font-family="Times,serif" font-size="14.00" fill="#000000">8</text>
</g>
<!-- 9 -->
<g id="node2" class="node">
<title>9</title>
<ellipse fill="none" stroke="#000000" cx="141.1388" cy="-198.6064" rx="18" ry="18"/>
<text text-anchor="middle" x="141.1388" y="-194.4064" font-family="Times,serif" font-size="14.00" fill="#000000">9</text>
</g>
<!-- 8&#45;&#45;9 -->
<g id="edge1" class="edge">
<title>8&#45;&#45;9</title>
<path fill="none" stroke="#000000" d="M211.7883,-273.3403C196.0404,-256.682 169.3126,-228.4089 153.6366,-211.8267"/>
<text text-anchor="middle" x="179.2125" y="-231.3835" font-family="Times,serif" font-size="14.00" fill="#000000">73</text>
</g>
<!-- 13 -->
<g id="node4" class="node">
<title>13</title>
<ellipse fill="none" stroke="#000000" cx="205.4844" cy="-243.788" rx="18.9007" ry="18.9007"/>
<text text-anchor="middle" x="205.4844" y="-239.588" font-family="Times,serif" font-size="14.00" fill="#000000">13</text>
</g>
<!-- 9&#45;&#45;13 -->
<g id="edge32" class="edge">
<title>9&#45;&#45;13</title>
<path fill="none" stroke="#000000" d="M156.0627,-209.0855C166.1609,-216.1762 179.4779,-225.527 189.7437,-232.7353"/>
<text text-anchor="middle" x="172.9032" y="-209.7104" font-family="Times,serif" font-size="14.00" fill="#000000">62</text>
</g>
<!-- 22 -->
<g id="node6" class="node">
<title>22</title>
<ellipse fill="none" stroke="#000000" cx="72.177" cy="-149.5773" rx="18.9007" ry="18.9007"/>
<text text-anchor="middle" x="72.177" y="-145.3773" font-family="Times,serif" font-size="14.00" fill="#000000">22</text>
</g>
<!-- 9&#45;&#45;22 -->
<g id="edge41" class="edge">
<title>9&#45;&#45;22</title>
<path fill="none" stroke="#000000" d="M126.1751,-187.9678C114.9248,-179.9693 99.5413,-169.0322 88.0713,-160.8775"/>
<text text-anchor="middle" x="100.1232" y="-177.2227" font-family="Times,serif" font-size="14.00" fill="#000000">44</text>
</g>
<!-- 16 -->
<g id="node3" class="node">
<title>16</title>
<ellipse fill="none" stroke="#000000" cx="271.6766" cy="-230.4807" rx="18.9007" ry="18.9007"/>
<text text-anchor="middle" x="271.6766" y="-226.2807" font-family="Times,serif" font-size="14.00" fill="#000000">16</text>
</g>
<!-- 16&#45;&#45;13 -->
<g id="edge2" class="edge">
<title>16&#45;&#45;13</title>
<path fill="none" stroke="#000000" d="M252.8856,-234.2584C243.8654,-236.0719 233.0897,-238.2382 224.0933,-240.0469"/>
<text text-anchor="middle" x="231.4895" y="-239.9526" font-family="Times,serif" font-size="14.00" fill="#000000">31</text>
</g>
<!-- 24 -->
<g id="node9" class="node">
<title>24</title>
<ellipse fill="none" stroke="#000000" cx="320.9221" cy="-279.5025" rx="18.9007" ry="18.9007"/>
<text text-anchor="middle" x="320.9221" y="-275.3025" font-family="Times,serif" font-size="14.00" fill="#000000">24</text>
</g>
<!-- 16&#45;&#45;24 -->
<g id="edge26" class="edge">
<title>16&#45;&#45;24</title>
<path fill="none" stroke="#000000" d="M285.1331,-243.8761C292.0817,-250.7932 300.5355,-259.2086 307.4818,-266.1233"/>
<text text-anchor="middle" x="289.3075" y="-257.7997" font-family="Times,serif" font-size="14.00" fill="#000000">64</text>
</g>
<!-- 23 -->
<g id="node10" class="node">
<title>23</title>
<ellipse fill="none" stroke="#000000" cx="304.8887" cy="-181.1618" rx="18.9007" ry="18.9007"/>
<text text-anchor="middle" x="304.8887" y="-176.9618" font-family="Times,serif" font-size="14.00" fill="#000000">23</text>
</g>
<!-- 16&#45;&#45;23 -->
<g id="edge6" class="edge">
<title>16&#45;&#45;23</title>
<path fill="none" stroke="#000000" d="M282.368,-214.6044C286.1605,-208.9726 290.4265,-202.6377 294.2174,-197.0083"/>
<text text-anchor="middle" x="295.2927" y="-208.6064" font-family="Times,serif" font-size="14.00" fill="#000000">70</text>
</g>
<!-- 11 -->
<g id="node26" class="node">
<title>11</title>
<ellipse fill="none" stroke="#000000" cx="251.7798" cy="-165.2926" rx="18.7537" ry="18.7537"/>
<text text-anchor="middle" x="251.7798" y="-161.0926" font-family="Times,serif" font-size="14.00" fill="#000000">11</text>
</g>
<!-- 16&#45;&#45;11 -->
<g id="edge43" class="edge">
<title>16&#45;&#45;11</title>
<path fill="none" stroke="#000000" d="M266.1342,-212.3222C263.3746,-203.2806 260.048,-192.3819 257.2925,-183.3537"/>
<text text-anchor="middle" x="254.7133" y="-200.6379" font-family="Times,serif" font-size="14.00" fill="#000000">90</text>
</g>
<!-- 2 -->
<g id="node22" class="node">
<title>2</title>
<ellipse fill="none" stroke="#000000" cx="165.4902" cy="-325.8779" rx="18" ry="18"/>
<text text-anchor="middle" x="165.4902" y="-321.6779" font-family="Times,serif" font-size="14.00" fill="#000000">2</text>
</g>
<!-- 13&#45;&#45;2 -->
<g id="edge21" class="edge">
<title>13&#45;&#45;2</title>
<path fill="none" stroke="#000000" d="M197.0027,-261.1971C190.0321,-275.5046 180.2297,-295.6245 173.4156,-309.6106"/>
<text text-anchor="middle" x="178.2091" y="-288.2039" font-family="Times,serif" font-size="14.00" fill="#000000">18</text>
</g>
<!-- 13&#45;&#45;11 -->
<g id="edge37" class="edge">
<title>13&#45;&#45;11</title>
<path fill="none" stroke="#000000" d="M215.3025,-227.1411C223.2651,-213.6402 234.42,-194.7266 242.2925,-181.3786"/>
<text text-anchor="middle" x="222.0538" y="-207.0598" font-family="Times,serif" font-size="14.00" fill="#000000">11</text>
</g>
<!-- 18 -->
<g id="node5" class="node">
<title>18</title>
<ellipse fill="none" stroke="#000000" cx="332.5193" cy="-237.6268" rx="18.9007" ry="18.9007"/>
<text text-anchor="middle" x="332.5193" y="-233.4268" font-family="Times,serif" font-size="14.00" fill="#000000">18</text>
</g>
<!-- 18&#45;&#45;8 -->
<g id="edge3" class="edge">
<title>18&#45;&#45;8</title>
<path fill="none" stroke="#000000" d="M315.1545,-245.515C294.747,-254.7854 261.1274,-270.0576 241.0518,-279.1772"/>
<text text-anchor="middle" x="271.1031" y="-265.1461" font-family="Times,serif" font-size="14.00" fill="#000000">26</text>
</g>
<!-- 18&#45;&#45;24 -->
<g id="edge38" class="edge">
<title>18&#45;&#45;24</title>
<path fill="none" stroke="#000000" d="M327.3988,-256.116C326.9376,-257.7812 326.4707,-259.4673 326.0098,-261.1314"/>
<text text-anchor="middle" x="319.7043" y="-247.4237" font-family="Times,serif" font-size="14.00" fill="#000000">51</text>
</g>
<!-- 17 -->
<g id="node7" class="node">
<title>17</title>
<ellipse fill="none" stroke="#000000" cx="91.1321" cy="-68.3584" rx="18.9007" ry="18.9007"/>
<text text-anchor="middle" x="91.1321" y="-64.1584" font-family="Times,serif" font-size="14.00" fill="#000000">17</text>
</g>
<!-- 22&#45;&#45;17 -->
<g id="edge4" class="edge">
<title>22&#45;&#45;17</title>
<path fill="none" stroke="#000000" d="M76.5733,-130.7399C79.6574,-117.5251 83.7607,-99.9432 86.8249,-86.8137"/>
<text text-anchor="middle" x="74.6991" y="-111.5768" font-family="Times,serif" font-size="14.00" fill="#000000">29</text>
</g>
<!-- 21 -->
<g id="node25" class="node">
<title>21</title>
<ellipse fill="none" stroke="#000000" cx="172.8821" cy="-58.6207" rx="18.9007" ry="18.9007"/>
<text text-anchor="middle" x="172.8821" y="-54.4207" font-family="Times,serif" font-size="14.00" fill="#000000">21</text>
</g>
<!-- 17&#45;&#45;21 -->
<g id="edge27" class="edge">
<title>17&#45;&#45;21</title>
<path fill="none" stroke="#000000" d="M110.0926,-66.0999C123.2996,-64.5268 140.84,-62.4374 154.0244,-60.867"/>
<text text-anchor="middle" x="125.0585" y="-66.2835" font-family="Times,serif" font-size="14.00" fill="#000000">67</text>
</g>
<!-- 14 -->
<g id="node8" class="node">
<title>14</title>
<ellipse fill="none" stroke="#000000" cx="247.6625" cy="-315.3297" rx="18.9007" ry="18.9007"/>
<text text-anchor="middle" x="247.6625" y="-311.1297" font-family="Times,serif" font-size="14.00" fill="#000000">14</text>
</g>
<!-- 14&#45;&#45;14 -->
<g id="edge40" class="edge">
<title>14&#45;&#45;14</title>
<path fill="none" stroke="#000000" d="M265.5319,-321.7567C275.4654,-322.9564 284.6128,-320.8141 284.6128,-315.3297 284.6128,-309.8454 275.4654,-307.703 265.5319,-308.9027"/>
<text text-anchor="middle" x="291.6128" y="-311.1297" font-family="Times,serif" font-size="14.00" fill="#000000">18</text>
</g>
<!-- 14&#45;&#45;24 -->
<g id="edge5" class="edge">
<title>14&#45;&#45;24</title>
<path fill="none" stroke="#000000" d="M265.024,-306.8392C276.7021,-301.128 292.0331,-293.6305 303.6852,-287.9321"/>
<text text-anchor="middle" x="277.3546" y="-300.1857" font-family="Times,serif" font-size="14.00" fill="#000000">42</text>
</g>
<!-- 3 -->
<g id="node24" class="node">
<title>3</title>
<ellipse fill="none" stroke="#000000" cx="159.8911" cy="-232.0179" rx="18" ry="18"/>
<text text-anchor="middle" x="159.8911" y="-227.8179" font-family="Times,serif" font-size="14.00" fill="#000000">3</text>
</g>
<!-- 14&#45;&#45;3 -->
<g id="edge16" class="edge">
<title>14&#45;&#45;3</title>
<path fill="none" stroke="#000000" d="M233.5605,-301.9442C216.8907,-286.1214 189.3654,-259.9946 173.0967,-244.5525"/>
<text text-anchor="middle" x="196.3286" y="-276.0484" font-family="Times,serif" font-size="14.00" fill="#000000">94</text>
</g>
<!-- 27 -->
<g id="node16" class="node">
<title>27</title>
<ellipse fill="none" stroke="#000000" cx="392.2809" cy="-318.7155" rx="18.9007" ry="18.9007"/>
<text text-anchor="middle" x="392.2809" y="-314.5155" font-family="Times,serif" font-size="14.00" fill="#000000">27</text>
</g>
<!-- 24&#45;&#45;27 -->
<g id="edge46" class="edge">
<title>24&#45;&#45;27</title>
<path fill="none" stroke="#000000" d="M337.8331,-288.7955C349.2083,-295.0463 364.1415,-303.2524 375.4913,-309.4893"/>
<text text-anchor="middle" x="349.6622" y="-301.9424" font-family="Times,serif" font-size="14.00" fill="#000000">56</text>
</g>
<!-- 23&#45;&#45;24 -->
<g id="edge47" class="edge">
<title>23&#45;&#45;24</title>
<path fill="none" stroke="#000000" d="M307.9801,-200.1229C310.8193,-217.5368 315.004,-243.2042 317.8402,-260.5996"/>
<text text-anchor="middle" x="309.4101" y="-233.1613" font-family="Times,serif" font-size="14.00" fill="#000000">1</text>
</g>
<!-- 5 -->
<g id="node21" class="node">
<title>5</title>
<ellipse fill="none" stroke="#000000" cx="211.1791" cy="-134.8654" rx="18" ry="18"/>
<text text-anchor="middle" x="211.1791" y="-130.6654" font-family="Times,serif" font-size="14.00" fill="#000000">5</text>
</g>
<!-- 23&#45;&#45;5 -->
<g id="edge23" class="edge">
<title>23&#45;&#45;5</title>
<path fill="none" stroke="#000000" d="M287.701,-172.6703C270.4757,-164.1603 244.163,-151.1607 227.3184,-142.8388"/>
<text text-anchor="middle" x="264.5097" y="-146.5546" font-family="Times,serif" font-size="14.00" fill="#000000">82</text>
</g>
<!-- 23&#45;&#45;11 -->
<g id="edge29" class="edge">
<title>23&#45;&#45;11</title>
<path fill="none" stroke="#000000" d="M286.6117,-175.7005C281.2108,-174.0867 275.3023,-172.3212 269.9107,-170.7102"/>
<text text-anchor="middle" x="278.2612" y="-162.0053" font-family="Times,serif" font-size="14.00" fill="#000000">38</text>
</g>
<!-- 29 -->
<g id="node11" class="node">
<title>29</title>
<ellipse fill="none" stroke="#000000" cx="99.4307" cy="-308.7588" rx="18.9007" ry="18.9007"/>
<text text-anchor="middle" x="99.4307" y="-304.5588" font-family="Times,serif" font-size="14.00" fill="#000000">29</text>
</g>
<!-- 7 -->
<g id="node12" class="node">
<title>7</title>
<ellipse fill="none" stroke="#000000" cx="117.0506" cy="-267.9683" rx="18" ry="18"/>
<text text-anchor="middle" x="117.0506" y="-263.7683" font-family="Times,serif" font-size="14.00" fill="#000000">7</text>
</g>
<!-- 29&#45;&#45;7 -->
<g id="edge7" class="edge">
<title>29&#45;&#45;7</title>
<path fill="none" stroke="#000000" d="M107.0054,-291.2232C107.9381,-289.0639 108.8897,-286.861 109.8172,-284.7139"/>
<text text-anchor="middle" x="101.4113" y="-276.7686" font-family="Times,serif" font-size="14.00" fill="#000000">17</text>
</g>
<!-- 15 -->
<g id="node18" class="node">
<title>15</title>
<ellipse fill="none" stroke="#000000" cx="18.9503" cy="-284.6164" rx="18.9007" ry="18.9007"/>
<text text-anchor="middle" x="18.9503" y="-280.4164" font-family="Times,serif" font-size="14.00" fill="#000000">15</text>
</g>
<!-- 29&#45;&#45;15 -->
<g id="edge44" class="edge">
<title>29&#45;&#45;15</title>
<path fill="none" stroke="#000000" d="M81.1684,-303.2805C67.9973,-299.3295 50.2947,-294.0191 37.1403,-290.073"/>
<text text-anchor="middle" x="55.6543" y="-299.4768" font-family="Times,serif" font-size="14.00" fill="#000000">1</text>
</g>
<!-- 29&#45;&#45;2 -->
<g id="edge39" class="edge">
<title>29&#45;&#45;2</title>
<path fill="none" stroke="#000000" d="M117.8319,-313.5275C127.147,-315.9414 138.4074,-318.8595 147.6434,-321.253"/>
<text text-anchor="middle" x="125.7377" y="-320.1902" font-family="Times,serif" font-size="14.00" fill="#000000">61</text>
</g>
<!-- 7&#45;&#45;7 -->
<g id="edge28" class="edge">
<title>7&#45;&#45;7</title>
<path fill="none" stroke="#000000" d="M134.0879,-274.3475C143.9085,-275.6494 153.0506,-273.523 153.0506,-267.9683 153.0506,-262.4136 143.9085,-260.2872 134.0879,-261.5891"/>
<text text-anchor="middle" x="160.0506" y="-263.7683" font-family="Times,serif" font-size="14.00" fill="#000000">77</text>
</g>
<!-- 6 -->
<g id="node23" class="node">
<title>6</title>
<ellipse fill="none" stroke="#000000" cx="192.475" cy="-202.1625" rx="18" ry="18"/>
<text text-anchor="middle" x="192.475" y="-197.9625" font-family="Times,serif" font-size="14.00" fill="#000000">6</text>
</g>
<!-- 7&#45;&#45;6 -->
<g id="edge17" class="edge">
<title>7&#45;&#45;6</title>
<path fill="none" stroke="#000000" d="M130.8846,-255.8985C144.4936,-244.025 165.1501,-226.0028 178.7287,-214.1558"/>
<text text-anchor="middle" x="151.3067" y="-237.8271" font-family="Times,serif" font-size="14.00" fill="#000000">4</text>
</g>
<!-- 1 -->
<g id="node13" class="node">
<title>1</title>
<ellipse fill="none" stroke="#000000" cx="304.7376" cy="-93.2479" rx="18" ry="18"/>
<text text-anchor="middle" x="304.7376" y="-89.0479" font-family="Times,serif" font-size="14.00" fill="#000000">1</text>
</g>
<!-- 4 -->
<g id="node14" class="node">
<title>4</title>
<ellipse fill="none" stroke="#000000" cx="360.8026" cy="-151.45" rx="18" ry="18"/>
<text text-anchor="middle" x="360.8026" y="-147.25" font-family="Times,serif" font-size="14.00" fill="#000000">4</text>
</g>
<!-- 1&#45;&#45;4 -->
<g id="edge8" class="edge">
<title>1&#45;&#45;4</title>
<path fill="none" stroke="#000000" d="M317.4596,-106.4548C326.635,-115.98 338.9671,-128.7822 348.1309,-138.2953"/>
<text text-anchor="middle" x="325.7953" y="-125.1751" font-family="Times,serif" font-size="14.00" fill="#000000">50</text>
</g>
<!-- 1&#45;&#45;11 -->
<g id="edge20" class="edge">
<title>1&#45;&#45;11</title>
<path fill="none" stroke="#000000" d="M294.0208,-107.8272C284.9537,-120.1622 272.0098,-137.7713 262.8452,-150.239"/>
<text text-anchor="middle" x="271.433" y="-131.8331" font-family="Times,serif" font-size="14.00" fill="#000000">51</text>
</g>
<!-- 4&#45;&#45;18 -->
<g id="edge14" class="edge">
<title>4&#45;&#45;18</title>
<path fill="none" stroke="#000000" d="M355.079,-168.8891C350.2366,-183.6437 343.3236,-204.707 338.429,-219.6204"/>
<text text-anchor="middle" x="339.754" y="-197.0547" font-family="Times,serif" font-size="14.00" fill="#000000">34</text>
</g>
<!-- 4&#45;&#45;23 -->
<g id="edge30" class="edge">
<title>4&#45;&#45;23</title>
<path fill="none" stroke="#000000" d="M344.63,-160.0438C337.5343,-163.8144 329.199,-168.2436 321.9995,-172.0694"/>
<text text-anchor="middle" x="333.3147" y="-154.8566" font-family="Times,serif" font-size="14.00" fill="#000000">19</text>
</g>
<!-- 10 -->
<g id="node15" class="node">
<title>10</title>
<ellipse fill="none" stroke="#000000" cx="459.057" cy="-353.3602" rx="18.9007" ry="18.9007"/>
<text text-anchor="middle" x="459.057" y="-349.1602" font-family="Times,serif" font-size="14.00" fill="#000000">10</text>
</g>
<!-- 10&#45;&#45;27 -->
<g id="edge9" class="edge">
<title>10&#45;&#45;27</title>
<path fill="none" stroke="#000000" d="M442.2066,-344.6178C432.1611,-339.4061 419.4436,-332.808 409.3582,-327.5755"/>
<text text-anchor="middle" x="418.7824" y="-338.8967" font-family="Times,serif" font-size="14.00" fill="#000000">80</text>
</g>
<!-- 27&#45;&#45;27 -->
<g id="edge34" class="edge">
<title>27&#45;&#45;27</title>
<path fill="none" stroke="#000000" d="M410.1504,-325.1425C420.0838,-326.3422 429.2312,-324.1999 429.2312,-318.7155 429.2312,-313.2311 420.0838,-311.0888 410.1504,-312.2885"/>
<text text-anchor="middle" x="435.9749" y="-314.5155" font-family="Times,serif" font-size="14.00" fill="#000000">11</text>
</g>
<!-- 25 -->
<g id="node17" class="node">
<title>25</title>
<ellipse fill="none" stroke="#000000" cx="250.0763" cy="-18.9503" rx="18.9007" ry="18.9007"/>
<text text-anchor="middle" x="250.0763" y="-14.7503" font-family="Times,serif" font-size="14.00" fill="#000000">25</text>
</g>
<!-- 25&#45;&#45;1 -->
<g id="edge10" class="edge">
<title>25&#45;&#45;1</title>
<path fill="none" stroke="#000000" d="M261.4021,-34.3448C270.9084,-47.2661 284.4034,-65.609 293.7992,-78.3801"/>
<text text-anchor="middle" x="270.6007" y="-59.1624" font-family="Times,serif" font-size="14.00" fill="#000000">87</text>
</g>
<!-- 25&#45;&#45;21 -->
<g id="edge18" class="edge">
<title>25&#45;&#45;21</title>
<path fill="none" stroke="#000000" d="M232.9444,-27.7544C220.152,-34.3285 202.747,-43.273 189.9661,-49.8412"/>
<text text-anchor="middle" x="204.4553" y="-41.5978" font-family="Times,serif" font-size="14.00" fill="#000000">71</text>
</g>
<!-- 15&#45;&#45;15 -->
<g id="edge22" class="edge">
<title>15&#45;&#45;15</title>
<path fill="none" stroke="#000000" d="M36.8197,-291.0434C46.7532,-292.2431 55.9006,-290.1008 55.9006,-284.6164 55.9006,-279.1321 46.7532,-276.9897 36.8197,-278.1894"/>
<text text-anchor="middle" x="62.9006" y="-280.4164" font-family="Times,serif" font-size="14.00" fill="#000000">44</text>
</g>
<!-- 19 -->
<g id="node19" class="node">
<title>19</title>
<ellipse fill="none" stroke="#000000" cx="67.6657" cy="-221.4265" rx="18.9007" ry="18.9007"/>
<text text-anchor="middle" x="67.6657" y="-217.2265" font-family="Times,serif" font-size="14.00" fill="#000000">19</text>
</g>
<!-- 15&#45;&#45;19 -->
<g id="edge11" class="edge">
<title>15&#45;&#45;19</title>
<path fill="none" stroke="#000000" d="M30.7429,-269.3199C38.4022,-259.3849 48.3441,-246.489 55.9816,-236.5821"/>
<text text-anchor="middle" x="36.3623" y="-241.751" font-family="Times,serif" font-size="14.00" fill="#000000">57</text>
</g>
<!-- 19&#45;&#45;22 -->
<g id="edge48" class="edge">
<title>19&#45;&#45;22</title>
<path fill="none" stroke="#000000" d="M68.8746,-202.1722C69.5219,-191.8635 70.3169,-179.2015 70.9647,-168.8847"/>
<text text-anchor="middle" x="62.9197" y="-188.3285" font-family="Times,serif" font-size="14.00" fill="#000000">51</text>
</g>
<!-- 19&#45;&#45;7 -->
<g id="edge36" class="edge">
<title>19&#45;&#45;7</title>
<path fill="none" stroke="#000000" d="M81.6853,-234.639C88.6433,-241.1964 97.0013,-249.0733 103.8448,-255.5227"/>
<text text-anchor="middle" x="85.765" y="-247.8809" font-family="Times,serif" font-size="14.00" fill="#000000">18</text>
</g>
<!-- 19&#45;&#45;3 -->
<g id="edge45" class="edge">
<title>19&#45;&#45;3</title>
<path fill="none" stroke="#000000" d="M86.7748,-223.621C102.9196,-225.4751 125.8829,-228.1123 141.7478,-229.9342"/>
<text text-anchor="middle" x="110.7613" y="-229.5776" font-family="Times,serif" font-size="14.00" fill="#000000">6</text>
</g>
<!-- 28 -->
<g id="node20" class="node">
<title>28</title>
<ellipse fill="none" stroke="#000000" cx="242.9486" cy="-57.8655" rx="18.9007" ry="18.9007"/>
<text text-anchor="middle" x="242.9486" y="-53.6655" font-family="Times,serif" font-size="14.00" fill="#000000">28</text>
</g>
<!-- 28&#45;&#45;5 -->
<g id="edge12" class="edge">
<title>28&#45;&#45;5</title>
<path fill="none" stroke="#000000" d="M235.5802,-75.7244C230.3011,-88.5193 223.2404,-105.6325 218.0726,-118.1576"/>
<text text-anchor="middle" x="219.8264" y="-99.741" font-family="Times,serif" font-size="14.00" fill="#000000">75</text>
</g>
<!-- 5&#45;&#45;3 -->
<g id="edge31" class="edge">
<title>5&#45;&#45;3</title>
<path fill="none" stroke="#000000" d="M202.71,-150.9081C193.2071,-168.9089 177.8809,-197.9408 168.3729,-215.9513"/>
<text text-anchor="middle" x="178.5414" y="-172.2297" font-family="Times,serif" font-size="14.00" fill="#000000">65</text>
</g>
<!-- 2&#45;&#45;8 -->
<g id="edge19" class="edge">
<title>2&#45;&#45;8</title>
<path fill="none" stroke="#000000" d="M183.0126,-321.2963C192.7813,-316.1893 204.6013,-308.3523 213.1632,-301.3117"/>
<text text-anchor="middle" x="191.0879" y="-314.104" font-family="Times,serif" font-size="14.00" fill="#000000">77</text>
</g>
<!-- 2&#45;&#45;8 -->
<g id="edge24" class="edge">
<title>2&#45;&#45;8</title>
<path fill="none" stroke="#000000" d="M176.508,-311.5032C185.0034,-304.4791 196.8106,-296.6229 206.6203,-291.461"/>
<text text-anchor="middle" x="198.5642" y="-290.2821" font-family="Times,serif" font-size="14.00" fill="#000000">84</text>
</g>
<!-- 2&#45;&#45;7 -->
<g id="edge13" class="edge">
<title>2&#45;&#45;7</title>
<path fill="none" stroke="#000000" d="M153.7643,-311.8596C146.1484,-302.7548 136.2628,-290.9365 128.6685,-281.8575"/>
<text text-anchor="middle" x="134.4727" y="-299.6586" font-family="Times,serif" font-size="14.00" fill="#000000">11</text>
</g>
<!-- 12 -->
<g id="node27" class="node">
<title>12</title>
<ellipse fill="none" stroke="#000000" cx="152.8935" cy="-408.0633" rx="18.9007" ry="18.9007"/>
<text text-anchor="middle" x="152.8935" y="-403.8633" font-family="Times,serif" font-size="14.00" fill="#000000">12</text>
</g>
<!-- 2&#45;&#45;12 -->
<g id="edge42" class="edge">
<title>2&#45;&#45;12</title>
<path fill="none" stroke="#000000" d="M162.7569,-343.7109C160.7019,-357.1185 157.8919,-375.4518 155.7967,-389.1212"/>
<text text-anchor="middle" x="152.2768" y="-369.2161" font-family="Times,serif" font-size="14.00" fill="#000000">68</text>
</g>
<!-- 6&#45;&#45;9 -->
<g id="edge35" class="edge">
<title>6&#45;&#45;9</title>
<path fill="none" stroke="#000000" d="M174.2313,-200.8987C169.3896,-200.5633 164.1624,-200.2012 159.3238,-199.8661"/>
<text text-anchor="middle" x="166.7776" y="-189.1824" font-family="Times,serif" font-size="14.00" fill="#000000">95</text>
</g>
<!-- 6&#45;&#45;16 -->
<g id="edge15" class="edge">
<title>6&#45;&#45;16</title>
<path fill="none" stroke="#000000" d="M209.6606,-208.3071C222.6724,-212.9594 240.4982,-219.333 253.6999,-224.0532"/>
<text text-anchor="middle" x="238.6803" y="-218.9802" font-family="Times,serif" font-size="14.00" fill="#000000">50</text>
</g>
<!-- 3&#45;&#45;29 -->
<g id="edge49" class="edge">
<title>3&#45;&#45;29</title>
<path fill="none" stroke="#000000" d="M148.519,-246.4523C137.8464,-259.9987 121.9527,-280.1722 111.1642,-293.8657"/>
<text text-anchor="middle" x="136.8416" y="-272.959" font-family="Times,serif" font-size="14.00" fill="#000000">56</text>
</g>
<!-- 21&#45;&#45;5 -->
<g id="edge25" class="edge">
<title>21&#45;&#45;5</title>
<path fill="none" stroke="#000000" d="M181.5723,-75.9218C188.0164,-88.7512 196.74,-106.1188 203.0471,-118.6755"/>
<text text-anchor="middle" x="185.3097" y="-100.0986" font-family="Times,serif" font-size="14.00" fill="#000000">36</text>
</g>
<!-- 11&#45;&#45;5 -->
<g id="edge50" class="edge">
<title>11&#45;&#45;5</title>
<path fill="none" stroke="#000000" d="M236.6616,-153.9626C233.0543,-151.2592 229.2131,-148.3805 225.6363,-145.7"/>
<text text-anchor="middle" x="232.899" y="-138.6313" font-family="Times,serif" font-size="14.00" fill="#000000">3</text>
</g>
<!-- 11&#45;&#45;6 -->
<g id="edge33" class="edge">
<title>11&#45;&#45;6</title>
<path fill="none" stroke="#000000" d="M235.8872,-175.173C227.2411,-180.5484 216.5894,-187.1705 208.001,-192.51"/>
<text text-anchor="middle" x="218.4441" y="-186.6415" font-family="Times,serif" font-size="14.00" fill="#000000">7</text>
</g>
</g>
</svg>
